Coordinates
version=1
nRows=39
nColumns=18
inDegrees=yes

Units are S.I. units (second, meters, Newtons, ...)
If the header above contains a line with 'inDegrees', this indicates whether rotational values are in degrees (yes) or radians (no).

endheader
time	ground_thorax_rot_x	ground_thorax_rot_y	ground_thorax_rot_z	ground_thorax_tx	ground_thorax_ty	ground_thorax_tz	clav_prot	clav_elev	scapula_abduction	scapula_elevation	scapula_upward_rot	scapula_winging	plane_elv	shoulder_elv	axial_rot	elbow_flexion	pro_sup
      4.17000000	     -3.31713095	     -3.66773579	     -7.73856672	     -0.00486612	      0.00548476	     -0.00692995	    -40.22117829	      8.32017937	     -5.56452244	     -3.08930823	     66.87287364	    -11.04234905	     43.15268946	     95.57089955	    -17.83294059	      0.00000000	     34.32000000
      4.18000000	     -3.26803866	     -3.62403564	     -7.81645220	     -0.00491301	      0.00540475	     -0.00689112	    -40.16976976	      8.32785286	     -5.52501428	     -3.08140131	     66.81885072	    -11.01980921	     43.21384813	     95.50464948	    -17.84089475	      0.00000000	     34.32000000
      4.19000000	     -3.24576907	     -3.72478841	     -7.68482451	     -0.00502690	      0.00569372	     -0.00674678	    -40.04132691	      8.26243476	     -5.39305071	     -3.11883905	     66.69400825	    -10.93945398	     43.52584244	     95.30573627	    -17.87234795	      0.00000000	     34.32000000
      4.20000000	     -3.16972207	     -3.70950869	     -7.76058884	     -0.00509119	      0.00559072	     -0.00673695	    -39.99272243	      8.26965977	     -5.38033424	     -3.11209801	     66.61251418	    -10.91932609	     43.55416918	     95.22515590	    -17.87944713	      0.00000000	     34.32000000
      4.21000000	     -3.23999901	     -3.95610771	     -7.64281727	     -0.00506552	      0.00570728	     -0.00657201	    -39.81155626	      8.21623961	     -5.27788685	     -3.14034075	     66.34731634	    -10.82056256	     43.96081002	     94.98022559	    -17.92253173	      0.00000000	     34.32000000
      4.22000000	     -3.25509970	     -4.02624673	     -7.61727547	     -0.00505100	      0.00570800	     -0.00660026	    -39.63816269	      8.15533121	     -5.14958770	     -3.17294907	     66.12709780	    -10.72253850	     44.24228975	     94.82761573	    -17.92754342	      0.00000000	     34.32000000
      4.23000000	     -3.20058406	     -4.02960818	     -7.62772187	     -0.00507650	      0.00573417	     -0.00658675	    -39.50358979	      8.09658456	     -5.03397211	     -3.20557097	     65.97165956	    -10.64306405	     44.51709168	     94.67648370	    -17.94703114	      0.00000000	     34.32000000
      4.24000000	     -3.22558229	     -4.12746764	     -7.59431654	     -0.00514578	      0.00575704	     -0.00648928	    -39.29247290	      8.07459986	     -4.89778681	     -3.20934212	     65.69758288	    -10.53955737	     44.80999314	     94.49127597	    -17.95533924	      0.00000000	     34.32000000
      4.25000000	     -3.21263287	     -4.22700685	     -7.58741942	     -0.00519412	      0.00579369	     -0.00639000	    -39.11082913	      8.06674712	     -4.77181658	     -3.20445649	     65.47644112	    -10.45369371	     45.10863962	     94.34679008	    -17.97593071	      0.00000000	     34.32000000
      4.26000000	     -3.16257219	     -4.14922510	     -7.72264525	     -0.00521305	      0.00563427	     -0.00648850	    -39.02927670	      8.09186852	     -4.70659017	     -3.18232442	     65.39810729	    -10.42277461	     45.20845876	     94.26110364	    -17.98786521	      0.00000000	     34.32000000
      4.27000000	     -3.21666492	     -4.22231587	     -7.53652530	     -0.00519831	      0.00579566	     -0.00656735	    -38.65476035	      8.17960646	     -4.45578093	     -3.10002658	     64.96837490	    -10.27571897	     45.55799391	     94.27608177	    -17.87825399	      0.00000000	     34.32000000
      4.28000000	     -3.13868557	     -4.11128898	     -7.69868907	     -0.00499460	      0.00559848	     -0.00662989	    -38.56220155	      8.20342271	     -4.38657658	     -3.07792611	     64.87168426	    -10.23998907	     45.66126706	     94.16954183	    -17.89025626	      0.00000000	     34.32000000
      4.29000000	     -3.15818158	     -3.94236721	     -7.55371140	     -0.00502096	      0.00574647	     -0.00676178	    -38.36671579	      8.07916578	     -4.37827979	     -3.15274207	     64.43570039	    -10.12155545	     46.10518461	     94.02912177	    -17.83048134	      0.00000000	     34.32000000
      4.30000000	     -3.05752035	     -3.85586306	     -7.59188975	     -0.00501262	      0.00570105	     -0.00678720	    -38.24226213	      7.95679762	     -4.31524628	     -3.22877463	     64.21291754	    -10.03304346	     46.42907357	     93.94314045	    -17.80159002	      0.00000000	     34.32000000
      4.31000000	     -3.09020305	     -3.90843396	     -7.59059887	     -0.00498516	      0.00573030	     -0.00676335	    -38.10165968	      7.85185744	     -4.32153254	     -3.29238515	     63.87888088	     -9.94313215	     46.84324841	     93.83594201	    -17.75707738	      0.00000000	     34.32000000
      4.32000000	     -3.01165751	     -3.85305780	     -7.71844269	     -0.00499120	      0.00564084	     -0.00689281	    -38.03093781	      7.86828156	     -4.29115966	     -3.27646536	     63.77684910	     -9.91624612	     46.91215750	     93.74013895	    -17.76575542	      0.00000000	     34.32000000
      4.33000000	     -3.03495327	     -3.94470185	     -7.62835795	     -0.00500246	      0.00582535	     -0.00677041	    -37.88152150	      7.82398532	     -4.28431390	     -3.29710655	     63.46281105	     -9.83856028	     47.38892748	     93.55916113	    -17.79785529	      0.00000000	     34.32000000
      4.34000000	     -3.07555351	     -3.86981516	     -7.54046673	     -0.00508348	      0.00580634	     -0.00681325	    -37.69365006	      7.74513306	     -4.30005138	     -3.33820112	     63.02998455	     -9.73432975	     47.77650295	     93.47070558	    -17.76127072	      0.00000000	     34.32000000
      4.35000000	     -3.00065226	     -3.81335375	     -7.56688571	     -0.00510234	      0.00576676	     -0.00680358	    -37.56673310	      7.63563685	     -4.21388509	     -3.40359243	     62.83498359	     -9.64762407	     48.10936833	     93.34620111	    -17.76174052	      0.00000000	     34.32000000
      4.36000000	     -3.04538353	     -3.85328969	     -7.55881877	     -0.00507469	      0.00582012	     -0.00682363	    -37.42740605	      7.60636409	     -4.20631944	     -3.41319864	     62.54801829	     -9.57804501	     48.48206402	     93.22029729	    -17.76196357	      0.00000000	     34.32000000
      4.37000000	     -3.07927640	     -3.85039595	     -7.53691342	     -0.00507969	      0.00587475	     -0.00692372	    -37.28730503	      7.73963893	     -4.25378786	     -3.31101150	     62.25183148	     -9.55299570	     48.79270756	     93.20279899	    -17.76344384	      0.00000000	     34.32000000
      4.38000000	     -3.05362672	     -3.77912041	     -7.67613107	     -0.00504281	      0.00578135	     -0.00715552	    -37.21857364	      7.77277877	     -4.20495517	     -3.28291384	     62.18246826	     -9.53177627	     48.88831758	     93.13037373	    -17.77383492	      0.00000000	     34.32000000
      4.39000000	     -3.08964417	     -3.94903757	     -7.62784329	     -0.00489942	      0.00579445	     -0.00707806	    -37.08635072	      7.75943970	     -4.26514879	     -3.28074754	     61.83386505	     -9.46899911	     49.50267548	     93.02017159	    -17.78013401	      0.00000000	     34.32000000
      4.40000000	     -3.12947374	     -3.76860991	     -7.62661876	     -0.00493038	      0.00573723	     -0.00725071	    -37.04843463	      7.66785641	     -4.71839986	     -3.33653132	     61.17278872	     -9.42175092	     50.14889193	     93.18834879	    -17.35788799	      0.00000000	     34.32000000
      4.41000000	     -3.06995639	     -3.79932663	     -7.68423428	     -0.00485904	      0.00568512	     -0.00725729	    -36.97174696	      7.60297959	     -4.70060009	     -3.37362111	     61.01363594	     -9.36886289	     50.43611034	     93.00066456	    -17.34403053	      0.00000000	     34.32000000
      4.42000000	     -3.00392226	     -3.74233775	     -7.79334396	     -0.00482275	      0.00549996	     -0.00725345	    -36.91097074	      7.61238242	     -4.66699902	     -3.36186038	     60.93363384	     -9.34420113	     50.49981174	     92.91287547	    -17.34954995	      0.00000000	     34.32000000
      4.43000000	     -3.06039966	     -3.75270597	     -7.68680106	     -0.00490181	      0.00565640	     -0.00714393	    -36.79606320	      7.53935876	     -4.58844365	     -3.40118467	     60.76692949	     -9.27273995	     50.77745286	     92.63793688	    -17.27125621	      0.00000000	     34.32000000
      4.44000000	     -2.96637996	     -3.71161591	     -7.79197317	     -0.00493151	      0.00550161	     -0.00708013	    -36.73640520	      7.54352478	     -4.56675548	     -3.39272671	     60.67273253	     -9.24713810	     50.81989068	     92.53941695	    -17.27589960	      0.00000000	     34.32000000
      4.45000000	     -3.00884808	     -3.82839255	     -7.71005475	     -0.00495018	      0.00561875	     -0.00691705	    -36.58269786	      7.45526656	     -4.50873031	     -3.43804139	     60.39609624	     -9.15334540	     51.11554697	     92.21248634	    -17.17819014	      0.00000000	     34.32000000
      4.46000000	     -2.91343947	     -3.77348315	     -7.83655494	     -0.00494322	      0.00550225	     -0.00691285	    -36.51209827	      7.46571543	     -4.47789947	     -3.42413778	     60.29286059	     -9.12481567	     51.16755252	     92.10740334	    -17.18221242	      0.00000000	     34.32000000
      4.47000000	     -3.03534335	     -3.86537619	     -7.71415767	     -0.00503227	      0.00564985	     -0.00695747	    -36.25772771	      7.53562478	     -4.28790040	     -3.35293319	     60.02814641	     -9.03348225	     51.42339859	     91.88468482	    -16.92701326	      0.00000000	     34.32000000
      4.48000000	     -3.06925037	     -3.94842472	     -7.72875551	     -0.00501559	      0.00564719	     -0.00701044	    -36.07348699	      7.69378969	     -4.14396311	     -3.22820242	     59.88368052	     -8.99769476	     51.58830018	     91.77931045	    -16.70592177	      0.00000000	     34.32000000
      4.49000000	     -3.01770597	     -3.90662774	     -7.85069495	     -0.00501953	      0.00567714	     -0.00714029	    -36.01277236	      7.72047550	     -4.11567563	     -3.20396974	     59.80351693	     -8.97831362	     51.64452703	     91.69406747	    -16.70945742	      0.00000000	     34.32000000
      4.50000000	     -2.96808668	     -4.29998757	     -7.63295796	     -0.00510842	      0.00565690	     -0.00680680	    -35.60310571	      8.07507730	     -3.79762162	     -2.92397578	     59.48116876	     -8.89807107	     51.98350682	     91.47680436	    -15.78035336	      0.00000000	     34.32000000
      4.51000000	     -2.83944827	     -4.23180833	     -7.79400620	     -0.00511941	      0.00545338	     -0.00671977	    -35.51512076	      8.08335071	     -3.76131542	     -2.90904018	     59.34797331	     -8.86176436	     52.05361969	     91.33443186	    -15.79128468	      0.00000000	     34.32000000
      4.52000000	     -2.89156463	     -4.29310057	     -7.67963363	     -0.00515794	      0.00562967	     -0.00660971	    -35.31130812	      7.91077991	     -3.61769743	     -3.00537493	     59.03866303	     -8.72941761	     52.47531699	     90.88611109	    -15.72926354	      0.00000000	     34.32000000
      4.53000000	     -3.03427018	     -4.59256833	     -7.72247987	     -0.00514910	      0.00566981	     -0.00664696	    -34.89570565	      7.57674537	     -3.12051344	     -3.19425066	     58.65996529	     -8.47330954	     52.59814792	     90.58642226	    -14.60549105	      0.00000000	     34.32000000
      4.54000000	     -2.99916894	     -4.76695279	     -7.71604852	     -0.00519375	      0.00569072	     -0.00651069	    -34.80117954	      7.54144640	     -3.09583853	     -3.20709923	     58.48262498	     -8.42288211	     52.98482008	     90.32370653	    -14.62667280	      0.00000000	     34.32000000
      4.55000000	     -2.91851530	     -4.73448915	     -7.83095209	     -0.00525397	      0.00560834	     -0.00661228	    -34.74170644	      7.55415340	     -3.07829656	     -3.19149201	     58.38636710	     -8.40078419	     53.03809376	     90.22114415	    -14.63767590	      0.00000000	     34.32000000
